<svg width="860" height="420" viewBox="0 0 860 420" xmlns="http://www.w3.org/2000/svg">
<defs>
  <style>
    .bg{fill:#0d0d0d;}
    .title-bar{fill:#0a1a2a;}
    .dot-r{fill:#ff5f57;} .dot-y{fill:#ffbd2e;} .dot-g{fill:#28c840;}
    .border{fill:none;stroke:#00ffff;stroke-width:1.5;opacity:0.6;}
    .corner{stroke:#00ffff;stroke-width:1.5;fill:none;opacity:0.7;}
    .section-title{font-family:'Courier New',monospace;font-size:15px;fill:#00ffff;font-weight:bold;letter-spacing:2px;}
    .cat-label{font-family:'Courier New',monospace;font-size:11px;fill:#7B68EE;letter-spacing:3px;}
    .badge-text{font-family:'Courier New',monospace;font-size:10px;font-weight:bold;fill:#0d0d0d;}
    .badge-text-dark{font-family:'Courier New',monospace;font-size:10px;font-weight:bold;fill:#00ffff;}
    .sep{stroke:#00ffff;stroke-width:0.5;opacity:0.15;}

    .scanline{fill:url(#scanGrad);animation:sweep 6s linear infinite;}
    @keyframes sweep{0%{transform:translateY(-420px);}100%{transform:translateY(420px);}}

    /* Category groups fade in */
    .cat1{animation:fadein 0.5s ease 0.2s both;}
    .cat2{animation:fadein 0.5s ease 0.5s both;}
    .cat3{animation:fadein 0.5s ease 0.8s both;}
    .cat4{animation:fadein 0.5s ease 1.1s both;}
    .cat5{animation:fadein 0.5s ease 1.4s both;}
    @keyframes fadein{from{opacity:0;transform:translateY(6px);}to{opacity:1;transform:translateY(0);}}

    /* Badge pulse on hover - using animate */
    .badge{transition:all 0.2s;}
  </style>
  <linearGradient id="scanGrad" x1="0" y1="0" x2="0" y2="1">
    <stop offset="0%" stop-color="#00ffff" stop-opacity="0"/>
    <stop offset="50%" stop-color="#00ffff" stop-opacity="0.02"/>
    <stop offset="100%" stop-color="#00ffff" stop-opacity="0"/>
  </linearGradient>
  <clipPath id="clip"><rect width="860" height="420"/></clipPath>
</defs>

<rect width="860" height="420" class="bg" rx="8"/>
<rect width="860" height="32" class="title-bar" rx="8"/>
<rect width="860" height="16" class="title-bar" y="16"/>
<circle cx="20" cy="16" r="5" class="dot-r"/>
<circle cx="36" cy="16" r="5" class="dot-y"/>
<circle cx="52" cy="16" r="5" class="dot-g"/>
<text x="430" y="21" text-anchor="middle" font-family="Courier New,monospace" font-size="12" fill="#7B68EE">shakila@nsbm: ~/tech-stack</text>
<rect x="1" y="1" width="858" height="418" class="border" rx="8"/>
<polyline points="1,50 1,32 20,32" class="corner"/>
<polyline points="840,32 858,32 858,50" class="corner"/>
<polyline points="1,370 1,388 20,388" class="corner"/>
<polyline points="840,388 858,388 858,370" class="corner"/>

<g clip-path="url(#clip)">

<text x="24" y="58" class="section-title">$ cat tech_stack.config</text>
<line x1="24" y1="66" x2="836" y2="66" stroke="#00ffff" stroke-width="1" opacity="0.4"/>

<!-- ══ MOBILE ══ -->
<g class="cat1">
  <text x="24" y="84" class="cat-label">▸ MOBILE</text>
  <!-- Flutter -->
  <rect x="24" y="90" width="90" height="24" fill="#02569B" rx="4"/>
  <image href="https://cdn.simpleicons.org/flutter/white" x="28" y="93" width="18" height="18"/>
  <text x="50" y="106" class="badge-text" fill="white">FLUTTER</text>
  <!-- Dart -->
  <rect x="122" y="90" width="76" height="24" fill="#0175C2" rx="4"/>
  <image href="https://cdn.simpleicons.org/dart/white" x="126" y="93" width="18" height="18"/>
  <text x="148" y="106" class="badge-text" fill="white">DART</text>
  <line x1="24" y1="122" x2="836" y2="122" class="sep"/>
</g>

<!-- ══ FRONTEND ══ -->
<g class="cat2">
  <text x="24" y="138" class="cat-label">▸ FRONTEND</text>
  <!-- React -->
  <rect x="24"  y="144" width="80" height="24" fill="#20232A" rx="4"/>
  <image href="https://cdn.simpleicons.org/react/61DAFB" x="28" y="147" width="18" height="18"/>
  <text x="50" y="160" class="badge-text" fill="#61DAFB">REACT</text>
  <!-- Next.js -->
  <rect x="112" y="144" width="82" height="24" fill="#000000" rx="4"/>
  <image href="https://cdn.simpleicons.org/nextdotjs/white" x="116" y="147" width="18" height="18"/>
  <text x="138" y="160" class="badge-text" fill="white">NEXT.JS</text>
  <!-- JS -->
  <rect x="202" y="144" width="110" height="24" fill="#F7DF1E" rx="4"/>
  <image href="https://cdn.simpleicons.org/javascript/000000" x="206" y="147" width="18" height="18"/>
  <text x="228" y="160" class="badge-text">JAVASCRIPT</text>
  <!-- HTML5 -->
  <rect x="320" y="144" width="78" height="24" fill="#E34F26" rx="4"/>
  <image href="https://cdn.simpleicons.org/html5/white" x="324" y="147" width="18" height="18"/>
  <text x="346" y="160" class="badge-text" fill="white">HTML5</text>
  <!-- CSS3 -->
  <rect x="406" y="144" width="66" height="24" fill="#1572B6" rx="4"/>
  <image href="https://cdn.simpleicons.org/css3/white" x="410" y="147" width="18" height="18"/>
  <text x="432" y="160" class="badge-text" fill="white">CSS3</text>
  <!-- Tailwind -->
  <rect x="480" y="144" width="104" height="24" fill="#38B2AC" rx="4"/>
  <image href="https://cdn.simpleicons.org/tailwindcss/white" x="484" y="147" width="18" height="18"/>
  <text x="506" y="160" class="badge-text" fill="white">TAILWIND</text>
  <!-- Bootstrap -->
  <rect x="592" y="144" width="100" height="24" fill="#7952B3" rx="4"/>
  <image href="https://cdn.simpleicons.org/bootstrap/white" x="596" y="147" width="18" height="18"/>
  <text x="618" y="160" class="badge-text" fill="white">BOOTSTRAP</text>
  <line x1="24" y1="176" x2="836" y2="176" class="sep"/>
</g>

<!-- ══ BACKEND ══ -->
<g class="cat3">
  <text x="24" y="192" class="cat-label">▸ BACKEND</text>
  <!-- Java -->
  <rect x="24"  y="198" width="72" height="24" fill="#ED8B00" rx="4"/>
  <image href="https://cdn.simpleicons.org/openjdk/white" x="28" y="201" width="18" height="18"/>
  <text x="50" y="214" class="badge-text" fill="white">JAVA</text>
  <!-- Node.js -->
  <rect x="104" y="198" width="88" height="24" fill="#339933" rx="4"/>
  <image href="https://cdn.simpleicons.org/nodedotjs/white" x="108" y="201" width="18" height="18"/>
  <text x="130" y="214" class="badge-text" fill="white">NODE.JS</text>
  <!-- .NET -->
  <rect x="200" y="198" width="72" height="24" fill="#512BD4" rx="4"/>
  <image href="https://cdn.simpleicons.org/dotnet/white" x="204" y="201" width="18" height="18"/>
  <text x="226" y="214" class="badge-text" fill="white">.NET</text>
  <!-- Python -->
  <rect x="280" y="198" width="86" height="24" fill="#3776AB" rx="4"/>
  <image href="https://cdn.simpleicons.org/python/white" x="284" y="201" width="18" height="18"/>
  <text x="306" y="214" class="badge-text" fill="white">PYTHON</text>
  <!-- PHP -->
  <rect x="374" y="198" width="66" height="24" fill="#777BB4" rx="4"/>
  <image href="https://cdn.simpleicons.org/php/white" x="378" y="201" width="18" height="18"/>
  <text x="400" y="214" class="badge-text" fill="white">PHP</text>
  <line x1="24" y1="230" x2="836" y2="230" class="sep"/>
</g>

<!-- ══ DATABASES ══ -->
<g class="cat4">
  <text x="24" y="246" class="cat-label">▸ DATABASES</text>
  <!-- MySQL -->
  <rect x="24"  y="252" width="84" height="24" fill="#4479A1" rx="4"/>
  <image href="https://cdn.simpleicons.org/mysql/white" x="28" y="255" width="18" height="18"/>
  <text x="50" y="268" class="badge-text" fill="white">MYSQL</text>
  <!-- SQL Server -->
  <rect x="116" y="252" width="104" height="24" fill="#CC2927" rx="4"/>
  <image href="https://cdn.simpleicons.org/microsoftsqlserver/white" x="120" y="255" width="18" height="18"/>
  <text x="142" y="268" class="badge-text" fill="white">SQL SERVER</text>
  <!-- MongoDB -->
  <rect x="228" y="252" width="100" height="24" fill="#47A248" rx="4"/>
  <image href="https://cdn.simpleicons.org/mongodb/white" x="232" y="255" width="18" height="18"/>
  <text x="254" y="268" class="badge-text" fill="white">MONGODB</text>
  <!-- Oracle -->
  <rect x="336" y="252" width="82" height="24" fill="#F80000" rx="4"/>
  <image href="https://cdn.simpleicons.org/oracle/white" x="340" y="255" width="18" height="18"/>
  <text x="362" y="268" class="badge-text" fill="white">ORACLE</text>
  <line x1="24" y1="284" x2="836" y2="284" class="sep"/>
</g>

<!-- ══ TOOLS ══ -->
<g class="cat5">
  <text x="24" y="300" class="cat-label">▸ TOOLS</text>
  <!-- Figma -->
  <rect x="24"  y="306" width="78" height="24" fill="#F24E1E" rx="4"/>
  <image href="https://cdn.simpleicons.org/figma/white" x="28" y="309" width="18" height="18"/>
  <text x="50" y="322" class="badge-text" fill="white">FIGMA</text>
  <!-- Git -->
  <rect x="110" y="306" width="64" height="24" fill="#F05033" rx="4"/>
  <image href="https://cdn.simpleicons.org/git/white" x="114" y="309" width="18" height="18"/>
  <text x="136" y="322" class="badge-text" fill="white">GIT</text>
  <!-- GitHub -->
  <rect x="182" y="306" width="88" height="24" fill="#24292e" rx="4"/>
  <image href="https://cdn.simpleicons.org/github/white" x="186" y="309" width="18" height="18"/>
  <text x="208" y="322" class="badge-text" fill="white">GITHUB</text>
  <!-- Linux -->
  <rect x="278" y="306" width="78" height="24" fill="#FCC624" rx="4"/>
  <image href="https://cdn.simpleicons.org/linux/000000" x="282" y="309" width="18" height="18"/>
  <text x="304" y="322" class="badge-text">LINUX</text>
</g>

<!-- Footer -->
<line x1="24" y1="346" x2="836" y2="346" stroke="#00ffff" stroke-width="0.5" opacity="0.3"/>
<text x="34" y="366" font-family="Courier New,monospace" font-size="11" fill="#7B68EE">15+ languages &amp; frameworks loaded successfully</text>
<text x="700" y="366" font-family="Courier New,monospace" font-size="11" fill="#00ffff" opacity="0.5">[ OK ]</text>

<!-- Scanline -->
<rect width="860" height="80" class="scanline"/>

</g>
</svg>
